<svg version="1.1" id="Layer_1" xmlns="http://www.w3.org/2000/svg" xmlns:xlink="http://www.w3.org/1999/xlink" x="0px" y="0px"
	 width="100%" viewBox="0 0 1150 308" enable-background="new 0 0 1150 308" xml:space="preserve">
<path fill="#FFFFFF" opacity="1.000000" stroke="none" 
	d="
M852.000000,309.000000 
	C568.000000,309.000000 284.500000,309.000000 1.000000,309.000000 
	C1.000000,206.333328 1.000000,103.666664 1.000000,1.000000 
	C384.333344,1.000000 767.666687,1.000000 1151.000000,1.000000 
	C1151.000000,103.666664 1151.000000,206.333328 1151.000000,309.000000 
	C1051.500000,309.000000 952.000000,309.000000 852.000000,309.000000 
M407.289490,186.169540 
	C407.311218,169.852188 407.397156,153.534332 407.272308,137.218094 
	C407.256927,135.210892 406.556427,132.911118 405.426300,131.257492 
	C396.603119,118.347206 387.678680,105.503113 378.541382,92.814377 
	C377.433380,91.275719 374.894958,89.988884 372.982910,89.937149 
	C362.666901,89.658012 352.339355,89.792114 342.015900,89.826279 
	C340.986023,89.829681 339.957031,90.120117 338.508148,90.341400 
	C339.732330,92.182770 340.606476,93.566414 341.547577,94.902901 
	C356.107727,115.579712 370.685059,136.244446 385.226837,156.934143 
	C386.359253,158.545303 387.256653,160.321640 387.626099,162.293121 
	C371.231171,185.480484 354.836212,208.667862 337.742767,232.843140 
	C351.041260,232.843140 362.662262,232.941666 374.276917,232.715988 
	C375.696747,232.688385 377.498047,231.216278 378.420135,229.915634 
	C387.548492,217.039230 396.549561,204.072189 405.514435,191.080963 
	C406.304535,189.935974 406.583801,188.438461 407.289490,186.169540 
M422.059448,187.609589 
	C422.145966,187.927841 422.153259,188.300964 422.330292,188.556458 
	C432.087769,202.637939 441.836304,216.725800 451.680573,230.746414 
	C452.350952,231.701157 453.743805,232.723129 454.812225,232.735764 
	C466.715332,232.876556 478.620697,232.824539 491.276825,232.824539 
	C490.093445,230.856903 489.429047,229.582825 488.610382,228.417068 
	C480.484650,216.845673 472.287445,205.324265 464.202698,193.724396 
	C456.604126,182.822113 449.116669,171.842377 441.942413,160.295746 
	C458.290863,137.064651 474.639343,113.833572 491.545349,89.810196 
	C478.683533,89.810196 466.765869,89.709007 454.854980,89.947464 
	C453.477356,89.975052 451.779724,91.636414 450.835785,92.969078 
	C441.790619,105.739235 432.831818,118.571587 423.981537,131.477478 
	C422.931488,133.008698 422.149994,135.083298 422.138641,136.911575 
	C422.035309,153.571976 422.130463,170.233627 422.059448,187.609589 
M959.519836,232.847488 
	C990.767578,232.847488 1022.015320,232.847488 1053.373291,232.847488 
	C1053.373291,224.936523 1053.373291,217.717636 1053.373291,209.985352 
	C1026.098267,209.985352 999.197449,209.985352 972.182861,209.985352 
	C972.182861,197.085175 972.182861,184.709930 972.182861,171.804138 
	C995.942749,171.804138 1019.343140,171.804138 1042.818359,171.804138 
	C1042.818359,164.056946 1042.818359,156.850113 1042.818359,149.065262 
	C1019.036499,149.065262 995.649658,149.065262 972.266418,149.065262 
	C972.266418,136.448822 972.266418,124.425980 972.266418,111.849258 
	C999.256287,111.849258 1025.802246,111.849258 1052.293945,111.849258 
	C1052.293945,104.240318 1052.293945,97.201431 1052.293945,90.057968 
	C1016.912231,90.057968 981.973267,90.057968 946.755737,90.057968 
	C946.755737,137.631134 946.755737,184.987503 946.755737,232.847305 
	C950.939392,232.847305 954.734802,232.847305 959.519836,232.847488 
M237.500519,198.610687 
	C251.820572,198.610825 266.142395,198.733032 280.459442,198.525558 
	C284.055359,198.473450 285.791962,199.695465 287.078583,202.983902 
	C290.530609,211.807007 294.259766,220.525269 298.072235,229.200226 
	C298.700897,230.630676 300.266785,232.621689 301.467682,232.670334 
	C309.223083,232.984421 316.997375,232.831100 325.592682,232.831100 
	C324.681915,230.424713 324.127319,228.752975 323.427856,227.144241 
	C318.322357,215.402481 313.186218,203.674072 308.062653,191.940170 
	C293.757324,159.178162 279.415802,126.431801 265.214050,93.624947 
	C263.961029,90.730415 262.428009,89.602898 259.279510,89.774582 
	C254.464966,90.037117 249.608414,90.092644 244.802338,89.761734 
	C241.192612,89.513206 239.621246,90.946533 238.227448,94.163712 
	C222.429306,130.628830 206.459152,167.019409 190.547577,203.435425 
	C186.373672,212.988068 182.242996,222.559616 177.778854,232.845078 
	C185.463333,232.845078 192.395004,232.702393 199.316025,232.912003 
	C202.280487,233.001770 203.818237,231.974686 204.924255,229.255188 
	C208.431595,220.631302 212.340149,212.167679 215.723373,203.497620 
	C217.139481,199.868576 218.940460,198.170547 223.020966,198.523148 
	C227.483444,198.908752 232.005035,198.610336 237.500519,198.610687 
M584.622742,234.139267 
	C604.399353,232.793777 620.312927,223.891449 633.637390,209.570068 
	C627.950684,204.109161 622.596497,198.967590 617.182495,193.768631 
	C614.762817,195.768341 612.000793,198.169769 609.116943,200.414703 
	C592.147827,213.624374 570.017822,215.372528 552.225159,204.039597 
	C536.797791,194.213242 530.237610,179.107086 529.908997,161.227142 
	C529.213074,123.359497 563.998474,99.319656 597.757019,114.528809 
	C604.613220,117.617699 610.636108,122.556290 617.481201,126.921516 
	C622.414368,121.244759 627.599121,115.278412 632.962402,109.106636 
	C612.112549,88.715973 587.310059,82.958588 560.001099,88.819801 
	C527.976257,95.693161 507.310486,120.224266 503.807404,153.336243 
	C498.788055,200.779922 536.441040,238.870056 584.622742,234.139267 
M68.221542,89.843918 
	C60.914536,89.843918 53.607529,89.843918 45.566452,89.843918 
	C46.344788,91.978592 46.841228,93.509995 47.453171,94.993774 
	C65.211136,138.051147 82.980019,181.104019 100.748856,224.156906 
	C104.335091,232.846161 104.338272,232.844849 113.802048,232.844849 
	C125.854301,232.844849 125.813202,232.827911 130.433640,221.612320 
	C145.957092,183.930878 161.516037,146.264038 177.052048,108.587738 
	C179.505615,102.637650 181.910706,96.667564 184.689621,89.843788 
	C179.887680,89.843788 175.959732,89.797562 172.033340,89.855789 
	C167.389160,89.924675 161.656494,88.468964 158.410614,90.659637 
	C155.190170,92.833153 154.350113,98.669556 152.680984,102.982697 
	C144.461609,124.222168 136.332352,145.496490 128.132523,166.743546 
	C124.133110,177.106689 120.049065,187.437149 115.710670,198.530746 
	C114.828773,196.434402 114.292580,195.230988 113.811531,194.005951 
	C100.740250,160.719345 87.656677,127.437553 74.642181,94.128761 
	C73.603752,91.471024 72.649750,89.132385 68.221542,89.843918 
M755.100037,91.060982 
	C741.995667,111.551765 728.891296,132.042557 715.524658,152.943390 
	C713.650208,150.010483 712.210144,147.778076 710.790588,145.532761 
	C699.850281,128.229095 688.936462,110.908539 677.935059,93.643814 
	C677.018738,92.205872 675.554993,90.108894 674.285706,90.065338 
	C665.251526,89.755325 656.201721,89.900093 646.309692,89.900093 
	C647.682861,92.224594 648.449219,93.648880 649.331787,94.997101 
	C666.197327,120.761108 683.140442,146.474930 699.854492,172.336731 
	C701.534241,174.935791 702.595703,178.404144 702.660950,181.496170 
	C702.956177,195.480682 702.790039,209.474960 702.790039,223.465714 
	C702.790039,226.408524 702.790100,229.351349 702.790100,232.509674 
	C711.474243,232.509674 719.525452,232.509674 727.997803,232.509674 
	C727.997803,230.383163 727.997803,228.579788 727.997803,226.776428 
	C727.997803,211.286667 727.877747,195.795105 728.108459,180.308777 
	C728.149963,177.520889 729.032898,174.361267 730.547546,172.038467 
	C747.276062,146.383575 764.208496,120.861618 781.076538,95.297661 
	C782.114807,93.724068 783.075623,92.099388 784.114014,90.431778 
	C774.171448,90.431778 764.898071,90.431778 755.100037,91.060982 
M846.807617,196.500000 
	C846.807617,208.432693 846.807617,220.365372 846.807617,232.503571 
	C855.490540,232.503571 863.539001,232.503571 872.049194,232.503571 
	C872.049194,192.619446 872.049194,153.068619 872.049194,112.978867 
	C887.228027,112.978867 901.954468,112.978867 916.843628,112.978867 
	C916.843628,105.057518 916.843628,97.682472 916.843628,90.287613 
	C878.167908,90.287613 839.842651,90.287613 801.469604,90.287613 
	C801.469604,97.985222 801.469604,105.237213 801.469604,113.084122 
	C816.626099,113.084122 831.502197,113.084122 846.807373,113.084122 
	C846.807373,140.954224 846.807373,168.227112 846.807617,196.500000 
M379.331879,64.761505 
	C374.937195,65.779648 378.696838,67.576248 379.242096,68.364609 
	C390.138702,84.119301 401.164185,99.784897 412.185394,115.453178 
	C412.907684,116.480034 413.804474,117.384132 415.007965,118.802383 
	C427.637878,100.789902 439.977142,83.191963 452.904266,64.755630 
	C427.797699,64.755630 403.985870,64.755630 379.331879,64.761505 
z"/>
<path fill="#858A95" opacity="1.000000" stroke="none" 
	d="
M959.025024,232.847397 
	C954.734802,232.847305 950.939392,232.847305 946.755737,232.847305 
	C946.755737,184.987503 946.755737,137.631134 946.755737,90.057968 
	C981.973267,90.057968 1016.912231,90.057968 1052.293945,90.057968 
	C1052.293945,97.201431 1052.293945,104.240318 1052.293945,111.849258 
	C1025.802246,111.849258 999.256287,111.849258 972.266418,111.849258 
	C972.266418,124.425980 972.266418,136.448822 972.266418,149.065262 
	C995.649658,149.065262 1019.036499,149.065262 1042.818359,149.065262 
	C1042.818359,156.850113 1042.818359,164.056946 1042.818359,171.804138 
	C1019.343140,171.804138 995.942749,171.804138 972.182861,171.804138 
	C972.182861,184.709930 972.182861,197.085175 972.182861,209.985352 
	C999.197449,209.985352 1026.098267,209.985352 1053.373291,209.985352 
	C1053.373291,217.717636 1053.373291,224.936523 1053.373291,232.847488 
	C1022.015320,232.847488 990.767578,232.847488 959.025024,232.847397 
z"/>
<path fill="#848994" opacity="1.000000" stroke="none" 
	d="
M237.000687,198.610367 
	C232.005035,198.610336 227.483444,198.908752 223.020966,198.523148 
	C218.940460,198.170547 217.139481,199.868576 215.723373,203.497620 
	C212.340149,212.167679 208.431595,220.631302 204.924255,229.255188 
	C203.818237,231.974686 202.280487,233.001770 199.316025,232.912003 
	C192.395004,232.702393 185.463333,232.845078 177.778854,232.845078 
	C182.242996,222.559616 186.373672,212.988068 190.547577,203.435425 
	C206.459152,167.019409 222.429306,130.628830 238.227448,94.163712 
	C239.621246,90.946533 241.192612,89.513206 244.802338,89.761734 
	C249.608414,90.092644 254.464966,90.037117 259.279510,89.774582 
	C262.428009,89.602898 263.961029,90.730415 265.214050,93.624947 
	C279.415802,126.431801 293.757324,159.178162 308.062653,191.940170 
	C313.186218,203.674072 318.322357,215.402481 323.427856,227.144241 
	C324.127319,228.752975 324.681915,230.424713 325.592682,232.831100 
	C316.997375,232.831100 309.223083,232.984421 301.467682,232.670334 
	C300.266785,232.621689 298.700897,230.630676 298.072235,229.200226 
	C294.259766,220.525269 290.530609,211.807007 287.078583,202.983902 
	C285.791962,199.695465 284.055359,198.473450 280.459442,198.525558 
	C266.142395,198.733032 251.820572,198.610825 237.000687,198.610367 
M233.669098,176.184174 
	C247.400314,176.184174 261.131531,176.184174 275.870331,176.184174 
	C267.575439,156.955826 259.702057,138.704575 251.429779,119.528595 
	C243.221405,138.716309 235.370987,157.067322 227.192856,176.184341 
	C229.772400,176.184341 231.246552,176.184341 233.669098,176.184174 
z"/>
<path fill="#848994" opacity="1.000000" stroke="none" 
	d="
M584.168396,234.154953 
	C536.441040,238.870056 498.788055,200.779922 503.807404,153.336243 
	C507.310486,120.224266 527.976257,95.693161 560.001099,88.819801 
	C587.310059,82.958588 612.112549,88.715973 632.962402,109.106636 
	C627.599121,115.278412 622.414368,121.244759 617.481201,126.921516 
	C610.636108,122.556290 604.613220,117.617699 597.757019,114.528809 
	C563.998474,99.319656 529.213074,123.359497 529.908997,161.227142 
	C530.237610,179.107086 536.797791,194.213242 552.225159,204.039597 
	C570.017822,215.372528 592.147827,213.624374 609.116943,200.414703 
	C612.000793,198.169769 614.762817,195.768341 617.182495,193.768631 
	C622.596497,198.967590 627.950684,204.109161 633.637390,209.570068 
	C620.312927,223.891449 604.399353,232.793777 584.168396,234.154953 
z"/>
<path fill="#848994" opacity="1.000000" stroke="none" 
	d="
M68.681549,89.844086 
	C72.649750,89.132385 73.603752,91.471024 74.642181,94.128761 
	C87.656677,127.437553 100.740250,160.719345 113.811531,194.005951 
	C114.292580,195.230988 114.828773,196.434402 115.710670,198.530746 
	C120.049065,187.437149 124.133110,177.106689 128.132523,166.743546 
	C136.332352,145.496490 144.461609,124.222168 152.680984,102.982697 
	C154.350113,98.669556 155.190170,92.833153 158.410614,90.659637 
	C161.656494,88.468964 167.389160,89.924675 172.033340,89.855789 
	C175.959732,89.797562 179.887680,89.843788 184.689621,89.843788 
	C181.910706,96.667564 179.505615,102.637650 177.052048,108.587738 
	C161.516037,146.264038 145.957092,183.930878 130.433640,221.612320 
	C125.813202,232.827911 125.854301,232.844849 113.802048,232.844849 
	C104.338272,232.844849 104.335091,232.846161 100.748856,224.156906 
	C82.980019,181.104019 65.211136,138.051147 47.453171,94.993774 
	C46.841228,93.509995 46.344788,91.978592 45.566452,89.843918 
	C53.607529,89.843918 60.914536,89.843918 68.681549,89.844086 
z"/>
<path fill="#848994" opacity="1.000000" stroke="none" 
	d="
M755.362366,90.746384 
	C764.898071,90.431778 774.171448,90.431778 784.114014,90.431778 
	C783.075623,92.099388 782.114807,93.724068 781.076538,95.297661 
	C764.208496,120.861618 747.276062,146.383575 730.547546,172.038467 
	C729.032898,174.361267 728.149963,177.520889 728.108459,180.308777 
	C727.877747,195.795105 727.997803,211.286667 727.997803,226.776428 
	C727.997803,228.579788 727.997803,230.383163 727.997803,232.509674 
	C719.525452,232.509674 711.474243,232.509674 702.790100,232.509674 
	C702.790100,229.351349 702.790039,226.408524 702.790039,223.465714 
	C702.790039,209.474960 702.956177,195.480682 702.660950,181.496170 
	C702.595703,178.404144 701.534241,174.935791 699.854492,172.336731 
	C683.140442,146.474930 666.197327,120.761108 649.331787,94.997101 
	C648.449219,93.648880 647.682861,92.224594 646.309692,89.900093 
	C656.201721,89.900093 665.251526,89.755325 674.285706,90.065338 
	C675.554993,90.108894 677.018738,92.205872 677.935059,93.643814 
	C688.936462,110.908539 699.850281,128.229095 710.790588,145.532761 
	C712.210144,147.778076 713.650208,150.010483 715.524658,152.943390 
	C728.891296,132.042557 741.995667,111.551765 755.362366,90.746384 
z"/>
<path fill="#838893" opacity="1.000000" stroke="none" 
	d="
M846.807495,196.000000 
	C846.807373,168.227112 846.807373,140.954224 846.807373,113.084122 
	C831.502197,113.084122 816.626099,113.084122 801.469604,113.084122 
	C801.469604,105.237213 801.469604,97.985222 801.469604,90.287613 
	C839.842651,90.287613 878.167908,90.287613 916.843628,90.287613 
	C916.843628,97.682472 916.843628,105.057518 916.843628,112.978867 
	C901.954468,112.978867 887.228027,112.978867 872.049194,112.978867 
	C872.049194,153.068619 872.049194,192.619446 872.049194,232.503571 
	C863.539001,232.503571 855.490540,232.503571 846.807617,232.503571 
	C846.807617,220.365372 846.807617,208.432693 846.807495,196.000000 
z"/>
<path fill="#49494E" opacity="1.000000" stroke="none" 
	d="
M422.167664,186.894928 
	C422.130463,170.233627 422.035309,153.571976 422.138641,136.911575 
	C422.149994,135.083298 422.931488,133.008698 423.981537,131.477478 
	C432.831818,118.571587 441.790619,105.739235 450.835785,92.969078 
	C451.779724,91.636414 453.477356,89.975052 454.854980,89.947464 
	C466.765869,89.709007 478.683533,89.810196 491.545349,89.810196 
	C474.639343,113.833572 458.290863,137.064651 441.484497,160.762924 
	C440.273163,162.302032 439.540894,163.389557 438.763062,164.443436 
	C433.236511,171.931137 427.700592,179.411926 422.167664,186.894928 
z"/>
<path fill="#48484D" opacity="1.000000" stroke="none" 
	d="
M388.263306,162.021210 
	C387.256653,160.321640 386.359253,158.545303 385.226837,156.934143 
	C370.685059,136.244446 356.107727,115.579712 341.547577,94.902901 
	C340.606476,93.566414 339.732330,92.182770 338.508148,90.341400 
	C339.957031,90.120117 340.986023,89.829681 342.015900,89.826279 
	C352.339355,89.792114 362.666901,89.658012 372.982910,89.937149 
	C374.894958,89.988884 377.433380,91.275719 378.541382,92.814377 
	C387.678680,105.503113 396.603119,118.347206 405.426300,131.257492 
	C406.556427,132.911118 407.256927,135.210892 407.272308,137.218094 
	C407.397156,153.534332 407.311218,169.852188 406.918335,186.430664 
	C400.452576,178.468246 394.357941,170.244720 388.263306,162.021210 
z"/>
<path fill="#868A95" opacity="1.000000" stroke="none" 
	d="
M387.944702,162.157166 
	C394.357941,170.244720 400.452576,178.468246 406.823761,186.898224 
	C406.583801,188.438461 406.304535,189.935974 405.514435,191.080963 
	C396.549561,204.072189 387.548492,217.039230 378.420135,229.915634 
	C377.498047,231.216278 375.696747,232.688385 374.276917,232.715988 
	C362.662262,232.941666 351.041260,232.843140 337.742767,232.843140 
	C354.836212,208.667862 371.231171,185.480484 387.944702,162.157166 
z"/>
<path fill="#858994" opacity="1.000000" stroke="none" 
	d="
M422.113556,187.252258 
	C427.700592,179.411926 433.236511,171.931137 438.763062,164.443436 
	C439.540894,163.389557 440.273163,162.302032 441.303467,161.063416 
	C449.116669,171.842377 456.604126,182.822113 464.202698,193.724396 
	C472.287445,205.324265 480.484650,216.845673 488.610382,228.417068 
	C489.429047,229.582825 490.093445,230.856903 491.276825,232.824539 
	C478.620697,232.824539 466.715332,232.876556 454.812225,232.735764 
	C453.743805,232.723129 452.350952,231.701157 451.680573,230.746414 
	C441.836304,216.725800 432.087769,202.637939 422.330292,188.556458 
	C422.153259,188.300964 422.145966,187.927841 422.113556,187.252258 
z"/>
<path fill="#73BF45" opacity="1.000000" stroke="none" 
	d="
M379.752960,64.758568 
	C403.985870,64.755630 427.797699,64.755630 452.904266,64.755630 
	C439.977142,83.191963 427.637878,100.789902 415.007965,118.802383 
	C413.804474,117.384132 412.907684,116.480034 412.185394,115.453178 
	C401.164185,99.784897 390.138702,84.119301 379.242096,68.364609 
	C378.696838,67.576248 374.937195,65.779648 379.752960,64.758568 
z"/>
<path fill="#FEFEFE" opacity="1.000000" stroke="none" 
	d="
M233.194916,176.184265 
	C231.246552,176.184341 229.772400,176.184341 227.192856,176.184341 
	C235.370987,157.067322 243.221405,138.716309 251.429779,119.528595 
	C259.702057,138.704575 267.575439,156.955826 275.870331,176.184174 
	C261.131531,176.184174 247.400314,176.184174 233.194916,176.184265 
z"/>
</svg>